General
Complete name                    : E:\Seeding\Soul.Surfer.2011.BluRay.720p\Soul.Surfer.2011.720p.mkv
Format                           : Matroska
File size                        : 5.01 GiB
Duration                         : 1h 46mn
Overall bit rate                 : 6 739 Kbps
Encoded date                     : UTC 2011-07-11 05:58:33
Writing application              : mkvmerge v4.7.0 ('Just Like You Imagined') 编译于 Apr 21 2011 01:13:14
Writing library                  : libebml v1.2.0 + libmatroska v1.1.0

Video
ID                               : 1
Format                           : AVC
Format/Info                      : Advanced Video Codec
Format profile                   : High@L4.1
Format settings, CABAC           : Yes
Format settings, ReFrames        : 12 frames
Format settings, GOP             : M=4, N=32
Muxing mode                      : Container profile=Unknown@4.1
Codec ID                         : V_MPEG4/ISO/AVC
Duration                         : 1h 46mn
Bit rate                         : 5 229 Kbps
Width                            : 1 280 pixels
Height                           : 534 pixels
Display aspect ratio             : 2.35:1
Frame rate                       : 23.976 fps
Color space                      : YUV
Chroma subsampling               : 4:2:0
Bit depth                        : 8 bits
Scan type                        : Progressive
Bits/(Pixel*Frame)               : 0.319
Stream size                      : 3.79 GiB (76%)
Writing library                  : x264 core 115 r2008+578 3864dbe
Encoding settings                : cabac=1 / ref=12 / deblock=1:-3:-3 / analyse=0x3:0x113 / me=umh / subme=10 / psy=1 / fade_compensate=0.00 / psy_rd=1.05:0.10 / mixed_ref=1 / me_range=32 / chroma_me=1 / trellis=2 / 8x8dct=1 / cqm=1 / deadzone=21,11 / fast_pskip=0 / chroma_qp_offset=-2 / threads=6 / sliced_threads=0 / nr=0 / decimate=1 / interlaced=0 / bluray_compat=0 / constrained_intra=0 / fgo=0 / bframes=6 / b_pyramid=2 / b_adapt=2 / b_bias=0 / direct=3 / weightb=1 / open_gop=0 / weightp=2 / keyint=250 / keyint_min=23 / scenecut=40 / intra_refresh=0 / rc_lookahead=40 / rc=2pass / mbtree=1 / bitrate=5229 / ratetol=1.0 / qcomp=0.70 / qpmin=3 / qpmax=69 / qpstep=4 / cplxblur=20.0 / qblur=0.5 / vbv_maxrate=40000 / vbv_bufsize=30000 / nal_hrd=none / ip_ratio=1.40 / aq=2:1.00

Audio
ID                               : 2
Format                           : DTS
Format/Info                      : Digital Theater Systems
Codec ID                         : A_DTS
Duration                         : 1h 46mn
Bit rate mode                    : Constant
Bit rate                         : 1 510 Kbps
Channel(s)                       : 6 channels
Channel positions                : Front: L C R, Side: L R, LFE
Sampling rate                    : 48.0 KHz
Bit depth                        : 24 bits
Stream size                      : 1.12 GiB (22%)
Title                            : English DTS-HDMA core 5.1 1509Kbps

